<svg id="Layer_1" data-name="Layer 1" xmlns="http://www.w3.org/2000/svg" viewBox="0 0 164 134.13"><title>logo</title><path d="M424.31,364.52h9.6v19.26h-9.6v9.66h9.6v48.25H405V383.79H385.67v57.91H356.75V383.79H337.42v57.91H308.5V383.79h9.6v-9.6h-9.6v-9.66h9.6v-9.66h19.32v9.66h9.66V345.2h9.66v9.66h9.66v9.66H376v-9.66h48.31ZM309.44,382.84v-7.72h7.72v7.72Zm.94-58.85v-5.83h5.83V324Zm0,38.58v-5.77h5.83v5.77Zm9.66-9.66v-5.77h5.77v5.77Zm7.72-17.38v-9.66h9.66v9.66Zm2.89-22.21V309.5h3.89v3.83Zm7.72,50.19V355.8h7.72v7.72ZM350,332.65v-3.83h3.89v3.83Zm9.66-19.32V309.5h3.83v3.83ZM376,393.45v-9.66h-9.6v9.66Zm-8.66-.94v-7.72h7.72v7.72Zm.94-49.25v-5.77h5.83v5.77ZM377,324.94v-7.72h7.72v7.72Zm18.32,49.25v-9.66h-9.66v9.66Zm-7.72-1.94v-5.77h5.77v5.77Zm.94-20.26v-3.89h3.89V352Zm8.72-18.38v-5.77H403v5.77Zm8.66,20.32v-7.78h7.72v7.78Zm18.38,10.6h-9.66v9.66h9.66Zm-8.72-49.25v-7.72h7.72v7.72Zm0,57.91v-7.72h7.72v7.72Zm10.6-29.93v-5.77H432v5.77Zm0,48.31v-5.83H432v5.83Z" transform="translate(-308.5 -307.56)"/><path d="M443.58,383.79V364.52h9.6v-9.66H472.5v9.66h-9.66v9.66h9.66v9.6Zm0,57.91v-9.6h9.6v-9.66h-9.6v-9.66H472.5v19.32h-9.66v9.6Zm.94-116.76v-7.72h7.72v7.72Zm0,106.15v-7.72h7.72v7.72Zm.94-68.51v-5.77h5.83v5.77Zm1,37.64v-3.89h3.83v3.89Zm7.72-56v-7.72h7.72v7.72Zm.94-29.93v-5.77h5.77v5.77Zm.94,95.55V406H460v3.89Zm7.78-36.7v-7.72h7.72v7.72Zm.94,66.63V434h5.77v5.83Zm.94-107.15v-3.83h3.89v3.83Z" transform="translate(-308.5 -307.56)"/></svg>